HIERARCHY
ROOT Bip001_Pelvis
{
  OFFSET 34.4345 95.6767 -26.8758
  CHANNELS 6 Xposition Yposition Zposition Zrotation Xrotation Yrotation
  JOINT Bip001_Spine
  {
    OFFSET 1.4188e-005 10.2191 -0.0116013
    CHANNELS 3 Zrotation Xrotation Yrotation
    JOINT Bip001_L_Thigh
    {
      OFFSET 11.0458 -10.2192 0.0116197
      CHANNELS 3 Zrotation Xrotation Yrotation
      JOINT Bip001_L_Calf
      {
        OFFSET -0.707118 -44.0221 0.360014
        CHANNELS 3 Zrotation Xrotation Yrotation
        JOINT Bip001_L_Foot
        {
          OFFSET -0.651902 -40.5938 -3.56146
          CHANNELS 3 Zrotation Xrotation Yrotation
          JOINT Bip001_L_Toe0
          {
            OFFSET 0.0530839 -10.2181 13.1504
            CHANNELS 3 Zrotation Xrotation Yrotation
            End Site
            {
              OFFSET -1.02532e-005 0 7.55606
            }
          }
        }
      }
    }
    JOINT Bip001_R_Thigh
    {
      OFFSET -11.0458 -10.2191 0.0115893
      CHANNELS 3 Zrotation Xrotation Yrotation
      JOINT Bip001_R_Calf
      {
        OFFSET 0.706994 -44.0221 0.35984
        CHANNELS 3 Zrotation Xrotation Yrotation
        JOINT Bip001_R_Foot
        {
          OFFSET 0.651786 -40.5938 -3.5613
          CHANNELS 3 Zrotation Xrotation Yrotation
          JOINT Bip001_R_Toe0
          {
            OFFSET -0.0531479 -10.2181 13.1504
            CHANNELS 3 Zrotation Xrotation Yrotation
            End Site
            {
              OFFSET -1.02894e-005 0 7.55606
            }
          }
        }
      }
    }
    JOINT Bip001_Spine1
    {
      OFFSET 1.87041e-005 14.5736 1.08638
      CHANNELS 3 Zrotation Xrotation Yrotation
      JOINT Bip001_Spine2
      {
        OFFSET 2.24614e-005 14.5058 -1.69078
        CHANNELS 3 Zrotation Xrotation Yrotation
        JOINT Bip001_Neck
        {
          OFFSET 2.20278e-005 15.3945 -0.489414
          CHANNELS 3 Zrotation Xrotation Yrotation
          JOINT Bip001_L_Clavicle
          {
            OFFSET 6.06036 -0.000579998 0.00836775
            CHANNELS 3 Zrotation Xrotation Yrotation
            JOINT Bip001_L_UpperArm
            {
              OFFSET 11.5509 -0.0600302 0.00193952
              CHANNELS 3 Zrotation Xrotation Yrotation
              JOINT Bip001_L_Forearm
              {
                OFFSET 25.9523 0.0806089 -2.15551
                CHANNELS 3 Zrotation Xrotation Yrotation
                JOINT Bip001_L_Hand
                {
                  OFFSET 32.2475 0.153767 1.63968
                  CHANNELS 3 Zrotation Xrotation Yrotation
                  JOINT Bip001_L_Finger0
                  {
                    OFFSET 6.04639 -2.20976 5.90322
                    CHANNELS 3 Zrotation Xrotation Yrotation
                    End Site
                    {
                      OFFSET 4.22375 -1.43895 0.606485
                    }
                  }
                  JOINT Bip001_L_Finger1
                  {
                    OFFSET 11.0826 -0.704819 -0.198153
                    CHANNELS 3 Zrotation Xrotation Yrotation
                    End Site
                    {
                      OFFSET 6.20027 -0.397518 -0.0787166
                    }
                  }
                }
              }
            }
          }
          JOINT Bip001_R_Clavicle
          {
            OFFSET -6.06037 -0.000563197 0.00835105
            CHANNELS 3 Zrotation Xrotation Yrotation
            JOINT Bip001_R_UpperArm
            {
              OFFSET -11.5509 -0.0599978 0.00190698
              CHANNELS 3 Zrotation Xrotation Yrotation
              JOINT Bip001_R_Forearm
              {
                OFFSET -25.9523 0.0806822 -2.15589
                CHANNELS 3 Zrotation Xrotation Yrotation
                JOINT Bip001_R_Hand
                {
                  OFFSET -32.2475 0.153859 1.63989
                  CHANNELS 3 Zrotation Xrotation Yrotation
                  JOINT Bip001_R_Finger0
                  {
                    OFFSET -6.04641 -2.20976 5.90317
                    CHANNELS 3 Zrotation Xrotation Yrotation
                    End Site
                    {
                      OFFSET -4.22376 -1.43895 0.60647
                    }
                  }
                  JOINT Bip001_R_Finger1
                  {
                    OFFSET -11.0826 -0.704794 -0.198182
                    CHANNELS 3 Zrotation Xrotation Yrotation
                    End Site
                    {
                      OFFSET -6.20028 -0.397504 -0.0787333
                    }
                  }
                }
              }
            }
          }
          JOINT Bip001_Head
          {
            OFFSET 1.09673e-005 11.2744 2.05948
            CHANNELS 3 Zrotation Xrotation Yrotation
            End Site
            {
              OFFSET 2.89576e-005 20.8808 -2.77728e-005
            }
          }
        }
      }
    }
  }
}
MOTION
Frames:	12
Frame Time:	0.04
34.606 95.2027 -31.431 -0.976625 -0.569931 14.1585 -0.252145 2.71465 0.512813 7.18724 -11.4432 4.17067 -1.53749 17.9861 -7.36321 1.93796 -8.23611 0.069077 0.989423 -2.89431 -1.1028 -3.3911 -3.35608 -0.729681 1.36611 12.7193 -1.08509 -10.107 -5.74404 -11.2483 3.5066 -11.4292 3.73804 -0.507778 5.42714 1.03515 -0.525223 5.42712 1.03677 6.21565 -5.2217 -6.94221 -29.1117 4.05126 2.26673 -51.7263 38.0384 9.30667 17.3012 -1.0321 -36.7829 11.4863 -0.201482 -6.4888 -3.18055e-015 6.36111e-015 3.18055e-015 -4.77083e-015 3.18056e-015 -0 7.56284 11.6153 27.2431 59.5986 -40.2501 50.2007 -78.7874 17.5937 69.4235 -30.3345 -28.3585 -7.98374 -2.20695e-032 -1.59028e-015 -7.95139e-016 -3.18055e-015 -1.59028e-015 1.59028e-015 -9.45596 8.0605 -2.36979 
34.5263 95.3386 -31.2683 -0.612177 -0.293205 13.8816 -0.464991 2.60127 0.107267 6.82712 -10.5981 6.0116 -0.536041 16.5385 -8.39069 0.887693 -8.05526 0.053911 0.83585 -2.15169 -1.13273 -3.63774 -3.29622 -0.736053 1.46465 12.485 -0.787366 -9.96937 -5.78592 -10.9244 3.40899 -11.1454 3.63826 -0.948759 5.20116 0.23734 -0.942532 5.20138 0.237226 7.57431 -2.7838 -7.21476 -28.6885 1.38273 2.41656 -54.9802 37.6103 11.1164 17.693 -0.0569311 -34.6874 12.0154 0.144409 -6.17106 0 0 -0 1.59028e-015 6.36111e-015 3.18055e-015 11.1217 10.232 25.7394 45.2763 -38.8954 41.8605 -63.8801 14.4218 63.5167 -32.3577 -28.0351 -0.0868828 -6.36111e-015 -4.77083e-015 1.59028e-015 -6.36111e-015 -4.77083e-015 3.18055e-015 -10.2039 6.90179 -2.03254 
34.5476 95.4445 -31.1597 -0.140755 -0.793559 10.8326 -0.370245 2.55686 -0.166492 6.39119 -8.51276 5.90823 -0.78211 15.0703 -4.94771 0.331826 -7.88443 0.0413645 0.799085 -1.76795 -1.14085 -4.26986 -3.30707 -0.654011 1.11856 12.7357 -0.259126 -9.37384 -6.32177 -8.64386 3.28817 -10.8819 3.63301 -0.731422 5.11505 -0.317155 -0.732808 5.11494 -0.317129 7.37274 -1.34669 -6.60792 -28.3943 0.229719 1.97069 -59.5173 37.3498 14.42 18.1215 0.517788 -33 11.2401 0.666596 -5.8687 6.36111e-015 3.18055e-015 -0 4.77083e-015 0 -0 10.4784 8.32682 25.278 45.4722 -39.7888 36.6083 -55.9862 11.6271 65.6653 -29.4252 -34.1276 3.40578 -1.27222e-014 3.18055e-015 4.77083e-015 -9.54166e-015 3.18056e-015 3.18055e-015 -11.6032 5.90738 -1.13806 
34.5649 95.4289 -31.2272 -0.0833423 -1.21191 6.63362 -0.231358 2.62765 -0.498149 6.29395 -7.17696 7.65729 -0.70473 14.9204 -2.68677 -0.22166 -8.48919 0.0410955 0.312662 -1.37242 -0.559916 -4.6303 -4.20466 -0.196855 0.658378 13.473 0.114424 -8.3817 -7.15802 -5.60574 3.11103 -10.5429 3.71397 -0.440506 5.25721 -0.987236 -0.440508 5.25721 -0.987231 4.03979 -2.75867 -4.51927 -26.4316 2.4286 1.90422 -61.3109 38.089 16.7289 17.8666 1.92882 -31.4014 10.4627 0.470183 -6.68102 -3.18055e-015 -6.36111e-015 1.59028e-015 3.18055e-015 -6.36111e-015 -1.59028e-015 14.5728 10.215 24.6194 39.1667 -37.2167 30.9331 -47.913 9.091 62.4016 -27.4148 -31.3514 10.9208 -6.36111e-015 -3.18055e-015 3.18055e-015 -6.36111e-015 0 3.18055e-015 -8.8851 7.45725 -0.73213 
34.5469 95.4079 -31.2527 -0.126469 -1.64566 2.19601 -0.0852121 2.72275 -0.696406 6.08559 -5.74352 8.60862 -0.790423 14.5495 0.42754 -0.144622 -8.58841 0.0411774 0.17126 -1.63381 -0.191877 -4.86294 -4.9896 -0.510783 -0.0826493 13.9221 1.00189 -7.2547 -7.90441 -1.88855 3.04074 -10.3537 3.69537 -0.137803 5.44563 -1.38694 -0.13744 5.44591 -1.38906 0.946819 -4.21918 -2.84223 -23.8923 4.44879 1.82608 -64.8747 42.8562 19.0846 18.5448 1.0911 -29.0348 8.23672 -0.136929 -6.71723 1.59028e-015 -1.27222e-014 3.18055e-015 3.18055e-015 -1.27222e-014 1.59028e-015 17.5727 11.7098 24.1531 35.8541 -33.0528 26.5182 -41.5161 6.41392 61.5438 -22.9744 -26.4144 11.1963 -2.20695e-031 -7.95139e-015 -1.59028e-015 6.36111e-015 -7.95139e-015 -1.59028e-015 -5.56696 8.28652 -0.878693 
34.2598 95.4004 -31.4078 -0.470325 -1.68528 -2.3004 0.000522488 2.71731 -0.390503 6.28162 -4.63321 9.79783 -0.896745 13.9725 2.66545 0.758533 -7.99351 0.057063 0.326587 -2.53156 -0.00386606 -4.45728 -6.02172 0.852022 -0.424873 14.2052 1.37781 -6.30023 -8.13879 0.688773 2.97531 -9.78902 3.06438 0.0196443 5.43496 -0.782362 0.0196442 5.43482 -0.78236 1.69838 -4.5357 -2.9392 -24.9774 4.78719 1.58682 -66.858 46.7437 20.9403 19.4304 1.6879 -27.8712 5.38605 0.477715 -6.38135 3.18055e-015 6.36111e-015 -0 4.77083e-015 6.36111e-015 -7.95139e-016 18.3296 12.1865 23.4887 33.6716 -29.1398 21.0653 -40.908 6.58384 64.5802 -21.3937 -24.6953 9.79315 -6.36111e-015 8.74652e-015 3.18055e-015 -3.75182e-031 1.35174e-014 1.59028e-015 -5.32651 7.96891 -0.86118 
34.1371 95.4561 -31.404 -0.395222 -1.84635 -5.17489 0.00573171 2.68276 -0.283912 5.77375 -3.30594 10.4399 -0.483458 12.7302 4.2478 0.695247 -7.43303 0.0527724 0.163978 -2.61624 0.283406 -4.55998 -6.43622 1.24771 -0.622622 14.2707 1.77888 -5.63542 -8.32236 2.41346 2.86372 -9.50281 2.98701 0.0248373 5.36553 -0.569022 0.0248379 5.36552 -0.569025 1.85856 -4.41941 -3.01105 -25.4832 4.76777 1.1455 -66.6386 47.8839 20.8571 20.2606 3.61212 -27.3066 4.41457 1.2458 -5.75665 0 3.18055e-015 -0 -1.59028e-015 3.18056e-015 7.95139e-016 19.6905 12.1059 22.0291 31.7782 -23.7179 15.2152 -47.601 9.98783 67.0805 -22.7414 -24.4676 11.2703 -6.36111e-015 6.75868e-015 3.97569e-015 3.18055e-015 4.37326e-015 7.95139e-016 -4.32575 7.01307 -1.18906 
34.0323 95.5749 -31.3292 -0.102253 -2.07266 -6.75495 -0.049597 2.68093 -0.515826 5.22887 -1.9072 11.0586 -0.231431 10.9931 5.53876 -0.179638 -6.99925 0.0465689 -0.00464405 -2.16722 0.374138 -4.86257 -6.38775 1.39622 -0.683607 13.9766 1.74076 -4.98969 -8.44869 3.94937 2.74392 -9.14566 2.86416 -0.0828653 5.36181 -1.02878 -0.0788817 5.36197 -1.02961 1.30168 -4.32645 -2.26696 -24.48 4.81336 1.18334 -65.684 47.8971 19.1495 20.4279 4.55521 -26.7853 5.11118 1.41151 -5.82918 -3.31043e-032 -1.59028e-015 -1.19271e-015 1.59028e-015 -3.18056e-015 -1.59028e-015 21.392 12.1401 21.6454 30.8923 -17.0835 9.10056 -53.733 12.3099 68.2719 -22.8869 -24.2492 11.938 -3.18055e-015 7.95139e-016 1.98785e-015 -6.36111e-015 -8.94531e-016 2.38542e-015 -2.80103 6.24512 -1.07442 
33.6116 95.729 -31.2472 -0.580213 -2.49987 -7.61591 0.0652771 2.76928 -0.699671 5.75231 -0.526771 12.3367 -0.320153 9.63817 5.42822 -1.12631 -6.81683 0.0453403 -0.225316 -1.72181 0.498346 -4.35721 -5.38568 2.14317 -0.5563 12.4943 1.683 -4.66777 -7.87433 4.24937 2.57119 -8.64643 2.71827 0.16474 5.53756 -1.40495 0.164741 5.53756 -1.40496 0.840159 -4.30809 -1.81332 -24.208 4.84444 1.31061 -63.041 47.667 16.1915 19.8329 3.78557 -26.5748 6.95886 1.29986 -5.43061 -4.41391e-032 -1.59028e-015 -1.59028e-015 -4.41391e-032 -1.59028e-015 -1.59028e-015 22.6572 12.3007 21.6968 31.9753 -10.3988 3.16863 -56.3776 13.9485 67.567 -23.5793 -23.8257 12.9322 -4.60696e-033 2.26622e-015 1.16475e-016 1.59028e-015 4.57826e-015 3.58744e-016 -1.65759 5.52456 -1.08244 
33.3365 95.8376 -31.1812 -0.641564 -2.76514 -7.62397 0.14832 2.82005 -0.681838 5.5898 0.327614 13.4926 0.226009 8.42323 4.44233 -2.03614 -6.59036 0.0444104 -0.41837 -1.29487 0.589613 -4.40662 -4.71939 1.69206 -0.417572 11.7071 1.33828 -4.26894 -7.75253 4.91023 2.41906 -8.21282 2.60627 0.331857 5.63814 -1.37922 0.331122 5.63816 -1.37633 1.4233 -4.02677 -2.31523 -25.367 4.57423 0.913789 -59.0478 47.3676 12.4532 18.4459 1.45366 -26.7502 8.36777 1.19745 -5.06702 -3.18055e-015 1.59028e-015 1.59028e-015 -3.18055e-015 0 7.95139e-016 22.89 12.1153 21.1721 34.6293 -2.76542 -2.55459 -56.6989 15.3947 65.2777 -25.9937 -21.7862 11.0619 7.95139e-016 -5.01931e-015 -7.95139e-016 -1.15175e-031 -8.29926e-015 -7.95139e-016 -1.79618 4.23101 -1.40109 
32.9796 95.8968 -31.1575 -0.804234 -2.96699 -7.33735 0.200409 2.84995 -0.620154 5.83006 0.730076 13.4034 0.263274 7.85281 4.22217 -1.73649 -5.92399 0.0435444 -0.0189729 -1.80269 0.218979 -4.20655 -3.95615 1.61013 -0.236063 10.7742 0.990352 -4.06801 -7.58862 4.96032 2.31087 -7.88723 2.50538 0.433567 5.69754 -1.25241 0.433208 5.69755 -1.25237 2.06026 -3.68089 -2.67812 -26.2157 4.278 0.407464 -55.1037 46.5987 8.64725 17.7582 -0.136424 -27.3642 9.89153 0.960862 -5.19052 6.36111e-015 4.77083e-015 -1.59028e-015 3.18055e-015 1.59028e-015 -0 22.9374 11.9426 21.0958 39.186 4.3083 -7.51561 -52.9543 15.8523 58.9688 -26.5027 -18.0663 9.9435 0 7.95139e-016 -0 -7.95139e-016 -2.38542e-015 1.59028e-015 -1.99119 2.44537 -1.55824 
32.8425 95.9305 -31.2404 -0.417246 -2.93978 -6.79843 0.123059 2.82001 -0.581319 5.51738 0.866724 10.7397 0.1168 6.99882 6.37884 -1.64032 -5.16371 0.0425756 0.20161 -2.22658 0.0296261 -4.62435 -3.80174 1.4655 0.182235 10.5543 0.698768 -3.99332 -7.73876 4.83285 2.26125 -7.7327 2.45342 0.274622 5.63858 -1.17155 0.274938 5.63857 -1.17115 2.25505 -3.75436 -2.63028 -26.1768 4.38565 0.275577 -51.8546 45.3074 5.03637 17.7296 -0.797119 -28.3933 11.4029 0.969787 -5.8815 0 1.59028e-015 -0 3.18055e-015 3.18056e-015 -1.59028e-015 23.5121 12.0698 20.6718 44.9146 9.13365 -11.3553 -52.6535 18.9873 52.3456 -24.2363 -15.9018 8.72902 0 0 -0 -3.18055e-015 -7.95139e-016 -0 -1.69373 1.14455 -1.56212 
